<svg width="1017" height="297" viewBox="0 0 1017 297" fill="none" xmlns="http://www.w3.org/2000/svg">
<g clip-path="url(#clip0_767_13)">
<path d="M236.488 60.8422C234.96 55.191 231.293 50.1234 226.129 46.1921C198.993 25.7374 166.786 10.4116 131.705 1.32066C128.313 0.42998 124.799 0 121.254 0C117.709 0 114.195 0.42998 110.803 1.32066C75.7227 10.4116 43.484 25.7374 16.4096 46.1921C11.2453 50.0927 7.57836 55.191 6.05048 60.8422C2.01683 75.7075 0 90.8486 0 105.99V184.707C0 199.848 2.01683 214.99 6.05048 229.855C7.57836 235.506 11.2453 240.574 16.4096 244.505C43.5145 264.96 75.7531 280.286 110.803 289.377C114.195 290.267 117.709 290.697 121.254 290.697C124.799 290.697 128.313 290.267 131.705 289.377C166.786 280.286 199.024 264.96 226.098 244.505C231.263 240.604 234.93 235.506 236.458 229.855C240.492 214.99 242.508 199.848 242.508 184.707V105.99C242.508 90.8486 240.492 75.7075 236.458 60.8422H236.488ZM233.127 150.462C231.752 155.499 228.543 160.044 223.776 163.638C210.483 173.681 195.816 182.527 180.17 189.959C164.524 197.391 147.87 203.411 130.666 207.896C127.61 208.694 124.463 209.093 121.254 209.093C118.045 209.093 114.898 208.694 111.843 207.896C94.6382 203.442 77.9839 197.391 62.3382 189.959C46.6926 182.527 32.0247 173.651 18.732 163.638C13.9956 160.044 10.7564 155.499 9.38127 150.462C8.46456 147.084 8.46456 143.521 9.38127 140.142C10.7564 135.106 13.965 130.56 18.732 126.967C32.0247 116.924 46.6926 108.078 62.3382 100.646C77.9839 93.2135 94.6382 87.194 111.843 82.71C114.898 81.9111 118.045 81.5116 121.254 81.5116C124.463 81.5116 127.61 81.9111 130.666 82.71C147.87 87.1628 164.524 93.2135 180.17 100.646C195.816 108.078 210.483 116.955 223.776 126.967C228.512 130.56 231.752 135.106 233.127 140.142C234.044 143.521 234.044 147.084 233.127 150.462ZM312.367 103.136C306.438 103.136 303.168 99.9115 303.168 94.1676V72.4232H427.265V94.1676C427.265 99.8804 423.995 103.136 418.066 103.136H382.772V218.187H347.692V103.136H312.367ZM517.806 186.613C526.393 182.805 532.535 178.475 539.838 172.824C545.247 168.616 547.997 162.934 548.639 156.422C549.586 147.178 549.616 143.493 548.639 134.248C547.997 128.044 545.094 122.178 539.838 118.063C532.627 112.074 526.515 107.835 517.806 104.026C515.117 102.829 511.908 102.184 508.455 102.184C505.002 102.184 501.794 102.829 499.104 104.026C490.395 107.835 484.284 112.074 477.072 118.063C471.816 122.178 468.913 128.075 468.271 134.248C467.294 143.493 467.324 147.178 468.271 156.422C468.944 162.934 471.633 168.554 477.072 172.824C484.315 178.536 490.487 182.836 499.104 186.613C501.885 187.812 505.002 188.242 508.455 188.242C511.908 188.242 514.995 187.812 517.806 186.613ZM485.598 217.91C475.392 213.917 463.352 207.806 454.673 201.294C441.992 191.835 434.108 177.277 432.336 161.521C431.083 150.311 431.083 140.33 432.336 129.119C434.108 113.363 441.992 98.8052 454.673 89.5611C463.382 82.8348 475.361 76.6312 485.598 72.6074C492.657 69.8126 500.327 67.7241 508.486 67.7241C516.645 67.7241 524.284 69.8433 531.374 72.6074C541.702 76.6616 553.62 82.8348 562.299 89.5611C574.98 98.8052 582.864 113.363 584.636 129.119C585.889 140.33 585.889 150.311 584.636 161.521C582.864 177.277 574.98 191.835 562.299 201.294C553.589 207.806 541.672 213.917 531.374 217.91C524.07 220.736 516.645 222.916 508.486 222.916C500.327 222.916 492.901 220.766 485.598 217.91ZM598.876 103.135C592.948 103.135 589.678 99.9108 589.678 94.1676V72.4228H713.774V94.1676C713.774 99.8804 710.504 103.135 704.577 103.135H669.282V218.186H634.201V103.135H598.876ZM781.62 212.878L743.085 162.908C740.303 159.376 739.356 156.244 739.356 151.882V72.459H764.843C770.522 72.459 773.766 75.5917 773.766 81.427V144.819C773.766 149.179 774.679 152.527 777.493 155.967L803.192 188.031L827.727 155.967C830.325 152.435 831.461 149.211 831.461 144.819V81.427C831.461 75.7142 834.578 72.459 840.383 72.459H865.868V151.882C865.868 156.244 864.732 159.468 862.141 163.031L824.03 212.909C821.224 216.656 817.831 218.222 813.155 218.222H792.555C787.789 218.222 784.493 216.656 781.68 212.909M888.45 171.223H915.426C921.721 171.223 922.76 173.374 924.535 179.393C927.044 187.962 934.408 192.477 949.47 192.477H957.479C972.972 192.477 981.004 187.686 981.004 178.103V174.94C981.004 169.043 975.904 165.234 965.853 163.392L931.72 157.188C907.335 152.827 890.981 141.186 890.981 119.718V111.333C890.981 84.4289 914.944 69.0728 943.546 69.0728H959.922C994.181 69.0728 1013.46 87.3774 1013.46 116.125H986.141C980.729 116.125 979.141 114.835 978.013 110.351C975.964 102.304 970.218 98.2498 957.969 98.2498H948.646C937.704 98.2498 926.977 101.29 926.977 111.211V114.589C926.977 119.811 931.624 123.527 941.193 125.154L976.854 131.573C1000.59 135.812 1017.07 146.838 1017.07 169.381V178.103C1017.07 207.281 991.367 221.777 960.597 221.777H945.862C912.375 221.777 888.539 206.513 888.539 171.223" fill="black"/>
</g>
<defs>
<clipPath id="clip0_767_13">
<rect width="1017" height="297" fill="white"/>
</clipPath>
</defs>
</svg>
