<svg width="1689" height="274" viewBox="0 0 1689 274" fill="none" xmlns="http://www.w3.org/2000/svg">
<g clip-path="url(#clip0_301_171)">
<path fill-rule="evenodd" clip-rule="evenodd" d="M178.604 0L178.587 236.04L-0.000976562 79.3728L78.9442 0H178.604Z" fill="#3065CF"/>
<path fill-rule="evenodd" clip-rule="evenodd" d="M177.604 0L177.62 236.04L356.208 79.3728L277.263 0H177.604Z" fill="#3065CF"/>
</g>
<path d="M438.209 208.318V22.8636H516.499C518.302 22.8636 520.706 22.9495 523.71 23.1212C526.801 23.2071 529.548 23.4646 531.951 23.8939C543.025 25.6111 552.082 29.2601 559.121 34.8409C566.246 40.4217 571.483 47.4621 574.831 55.9621C578.179 64.3763 579.853 73.7778 579.853 84.1667C579.853 94.5555 578.136 104 574.702 112.5C571.354 120.914 566.118 127.912 558.992 133.492C551.953 139.073 542.94 142.722 531.951 144.439C529.548 144.783 526.801 145.04 523.71 145.212C520.62 145.384 518.216 145.47 516.499 145.47H473.234V208.318H438.209ZM473.234 112.758H514.954C516.757 112.758 518.731 112.672 520.877 112.5C523.024 112.328 524.998 111.985 526.801 111.47C531.522 110.182 535.171 108.035 537.746 105.03C540.321 101.939 542.081 98.548 543.025 94.8561C544.055 91.0783 544.571 87.5151 544.571 84.1667C544.571 80.8182 544.055 77.298 543.025 73.6061C542.081 69.8283 540.321 66.4369 537.746 63.4318C535.171 60.3409 531.522 58.1515 526.801 56.8636C524.998 56.3485 523.024 56.005 520.877 55.8333C518.731 55.6616 516.757 55.5757 514.954 55.5757H473.234V112.758Z" fill="#2E63CD"/>
<path d="M661.394 212.182C647.144 212.182 634.568 209.134 623.666 203.038C612.849 196.856 604.351 188.399 598.17 177.667C592.075 166.848 589.027 154.485 589.027 140.576C589.027 125.379 592.032 112.157 598.041 100.909C604.05 89.6616 612.334 80.947 622.893 74.7651C633.452 68.4975 645.599 65.3636 659.334 65.3636C673.928 65.3636 686.332 68.798 696.548 75.6667C706.763 82.5353 714.318 92.1944 719.211 104.644C724.104 117.093 725.821 131.732 724.362 148.561H689.723V135.682C689.723 121.515 687.448 111.341 682.899 105.159C678.435 98.8914 671.095 95.7576 660.879 95.7576C648.947 95.7576 640.148 99.4066 634.482 106.705C628.902 113.917 626.112 124.606 626.112 138.773C626.112 151.737 628.902 161.783 634.482 168.909C640.148 175.949 648.432 179.47 659.334 179.47C666.202 179.47 672.082 177.967 676.975 174.962C681.868 171.957 685.603 167.621 688.178 161.955L723.203 172C717.966 184.707 709.682 194.581 698.351 201.621C687.105 208.662 674.786 212.182 661.394 212.182ZM615.296 148.561V122.545H707.493V148.561H615.296Z" fill="#2E63CD"/>
<path d="M746.998 208.318V69.2273H777.902V103.227L774.555 98.8485C776.357 94.0404 778.761 89.6616 781.765 85.7121C784.77 81.7626 788.461 78.5 792.839 75.9242C796.187 73.8636 799.836 72.2752 803.785 71.1591C807.734 69.9571 811.811 69.2273 816.018 68.9697C820.224 68.6263 824.43 68.7121 828.637 69.2273V101.939C824.774 100.737 820.267 100.351 815.116 100.78C810.051 101.124 805.459 102.283 801.338 104.258C797.218 106.146 793.741 108.679 790.908 111.856C788.075 114.947 785.929 118.639 784.47 122.932C783.01 127.139 782.281 131.904 782.281 137.227V208.318H746.998Z" fill="#2E63CD"/>
<path d="M858.281 208.318V69.7424C858.281 66.2222 858.367 62.2298 858.539 57.7651C858.711 53.3005 859.397 48.7929 860.599 44.2424C861.887 39.6919 864.205 35.5707 867.553 31.8788C871.845 27.0707 876.48 23.8081 881.459 22.0909C886.524 20.2879 891.417 19.3434 896.139 19.2576C900.86 19.0859 904.895 19 908.243 19H925.498V47.3333H909.531C904.037 47.3333 899.959 48.75 897.298 51.5833C894.637 54.3308 893.306 57.6364 893.306 61.5V208.318H858.281ZM836.391 96.2727V69.2273H925.498V96.2727H836.391Z" fill="#2E63CD"/>
<path d="M999.207 212.182C984.957 212.182 972.38 209.134 961.478 203.038C950.662 196.856 942.163 188.399 935.982 177.667C929.887 166.848 926.84 154.485 926.84 140.576C926.84 125.379 929.844 112.157 935.853 100.909C941.862 89.6616 950.146 80.947 960.705 74.7651C971.264 68.4975 983.411 65.3636 997.146 65.3636C1011.74 65.3636 1024.14 68.798 1034.36 75.6667C1044.58 82.5353 1052.13 92.1944 1057.02 104.644C1061.92 117.093 1063.63 131.732 1062.17 148.561H1027.54V135.682C1027.54 121.515 1025.26 111.341 1020.71 105.159C1016.25 98.8914 1008.91 95.7576 998.692 95.7576C986.759 95.7576 977.96 99.4066 972.294 106.705C966.715 113.917 963.925 124.606 963.925 138.773C963.925 151.737 966.715 161.783 972.294 168.909C977.96 175.949 986.244 179.47 997.146 179.47C1004.01 179.47 1009.89 177.967 1014.79 174.962C1019.68 171.957 1023.41 167.621 1025.99 161.955L1061.01 172C1055.78 184.707 1047.49 194.581 1036.16 201.621C1024.92 208.662 1012.6 212.182 999.207 212.182ZM953.108 148.561V122.545H1045.31V148.561H953.108Z" fill="#2E63CD"/>
<path d="M1146.1 212.182C1131.68 212.182 1119.32 208.962 1109.02 202.523C1098.72 196.083 1090.82 187.326 1085.33 176.25C1079.83 165.174 1077.08 152.682 1077.08 138.773C1077.08 124.692 1079.92 112.114 1085.58 101.038C1091.33 89.9621 1099.4 81.2475 1109.79 74.8939C1120.18 68.5404 1132.45 65.3636 1146.62 65.3636C1163.02 65.3636 1176.75 69.5278 1187.82 77.8561C1198.98 86.0985 1206.11 97.3889 1209.2 111.727L1174.18 121C1172.11 113.788 1168.51 108.164 1163.36 104.129C1158.29 100.093 1152.54 98.0757 1146.1 98.0757C1138.72 98.0757 1132.67 99.8788 1127.95 103.485C1123.23 107.005 1119.75 111.856 1117.52 118.038C1115.29 124.134 1114.17 131.045 1114.17 138.773C1114.17 150.879 1116.83 160.71 1122.15 168.265C1127.56 175.735 1135.54 179.47 1146.1 179.47C1154 179.47 1160.01 177.667 1164.13 174.061C1168.25 170.455 1171.34 165.303 1173.4 158.606L1209.2 166.076C1205.25 180.843 1197.78 192.22 1186.79 200.205C1175.81 208.189 1162.24 212.182 1146.1 212.182Z" fill="#2E63CD"/>
<path d="M1311.96 208.318C1302.34 210.121 1292.9 210.894 1283.63 210.636C1274.44 210.465 1266.2 208.876 1258.91 205.871C1251.69 202.78 1246.2 197.843 1242.42 191.061C1238.99 184.707 1237.19 178.268 1237.02 171.742C1236.84 165.131 1236.76 157.662 1236.76 149.333V30.5909H1271.78V147.273C1271.78 152.682 1271.83 157.576 1271.91 161.955C1272.08 166.247 1272.98 169.682 1274.62 172.258C1277.71 177.152 1282.64 179.813 1289.42 180.242C1296.21 180.672 1303.72 180.328 1311.96 179.212V208.318ZM1213.06 96.2727V69.2273H1311.96V96.2727H1213.06Z" fill="#2E63CD"/>
<path d="M1339.09 49.9091V19H1374.11V49.9091H1339.09ZM1339.09 208.318V69.2273H1374.11V208.318H1339.09Z" fill="#2E63CD"/>
<path d="M1501.05 208.318V142.636C1501.05 139.46 1500.88 135.424 1500.53 130.53C1500.19 125.55 1499.12 120.571 1497.31 115.591C1495.51 110.611 1492.55 106.447 1488.43 103.098C1484.39 99.75 1478.64 98.0757 1471.17 98.0757C1468.17 98.0757 1464.95 98.548 1461.52 99.4924C1458.08 100.437 1454.86 102.283 1451.86 105.03C1448.85 107.692 1446.36 111.641 1444.39 116.879C1442.5 122.116 1441.56 129.071 1441.56 137.742L1421.47 128.212C1421.47 117.222 1423.7 106.919 1428.17 97.303C1432.63 87.6869 1439.33 79.9167 1448.25 73.9924C1457.27 68.0682 1468.6 65.106 1482.25 65.106C1493.15 65.106 1502.04 66.952 1508.9 70.6439C1515.77 74.3359 1521.09 79.0151 1524.87 84.6818C1528.73 90.3485 1531.48 96.2727 1533.11 102.455C1534.74 108.55 1535.73 114.131 1536.07 119.197C1536.42 124.263 1536.59 127.955 1536.59 130.273V208.318H1501.05ZM1406.02 208.318V69.2273H1437.18V115.333H1441.56V208.318H1406.02Z" fill="#2E63CD"/>
<path d="M1623.05 274C1615.16 274 1607.64 272.712 1600.52 270.136C1593.39 267.646 1587 264.126 1581.33 259.576C1575.75 255.111 1571.2 249.874 1567.68 243.864L1600.13 228.152C1602.36 232.273 1605.54 235.407 1609.66 237.553C1613.87 239.699 1618.42 240.773 1623.31 240.773C1628.55 240.773 1633.48 239.871 1638.12 238.068C1642.75 236.351 1646.45 233.732 1649.19 230.212C1652.03 226.778 1653.36 222.485 1653.18 217.333V176.894H1657.56V69.2273H1688.21V217.848C1688.21 221.283 1688.04 224.503 1687.69 227.508C1687.44 230.598 1686.92 233.646 1686.15 236.652C1683.92 245.152 1679.75 252.149 1673.66 257.644C1667.65 263.139 1660.27 267.217 1651.51 269.879C1642.75 272.626 1633.27 274 1623.05 274ZM1619.96 212.182C1607.17 212.182 1595.97 208.962 1586.35 202.523C1576.74 196.083 1569.23 187.326 1563.82 176.25C1558.5 165.174 1555.84 152.682 1555.84 138.773C1555.84 124.606 1558.54 112.028 1563.95 101.038C1569.44 89.9621 1577.13 81.2475 1587 74.8939C1596.87 68.5404 1608.46 65.3636 1621.77 65.3636C1634.99 65.3636 1646.1 68.5833 1655.12 75.0227C1664.13 81.4621 1670.95 90.2197 1675.59 101.295C1680.23 112.371 1682.54 124.864 1682.54 138.773C1682.54 152.682 1680.18 165.174 1675.46 176.25C1670.83 187.326 1663.87 196.083 1654.6 202.523C1645.33 208.962 1633.78 212.182 1619.96 212.182ZM1625.63 181.015C1633.44 181.015 1639.66 179.255 1644.3 175.735C1649.02 172.215 1652.41 167.278 1654.47 160.924C1656.53 154.571 1657.56 147.187 1657.56 138.773C1657.56 130.359 1656.53 122.975 1654.47 116.621C1652.41 110.268 1649.11 105.331 1644.56 101.811C1640.09 98.2904 1634.21 96.5303 1626.92 96.5303C1619.1 96.5303 1612.67 98.4621 1607.6 102.326C1602.62 106.104 1598.93 111.212 1596.53 117.652C1594.12 124.005 1592.92 131.045 1592.92 138.773C1592.92 146.586 1594.08 153.712 1596.4 160.151C1598.72 166.505 1602.28 171.571 1607.09 175.348C1611.89 179.126 1618.07 181.015 1625.63 181.015Z" fill="#2E63CD"/>
<defs>
<clipPath id="clip0_301_171">
<rect width="358.209" height="236.969" fill="white"/>
</clipPath>
</defs>
</svg>
