<svg width="1250" height="255" viewBox="0 0 1250 255" fill="none" xmlns="http://www.w3.org/2000/svg">
<path d="M0 189.318V3.86363H78.2904C80.0931 3.86363 82.4968 3.94949 85.5013 4.1212C88.5917 4.20707 91.3388 4.46464 93.7424 4.89394C104.816 6.61111 113.873 10.2601 120.912 15.8409C128.037 21.4217 133.274 28.4621 136.622 36.9621C139.97 45.3763 141.644 54.7778 141.644 65.1667C141.644 75.5555 139.927 85 136.493 93.5C133.145 101.914 127.909 108.912 120.783 114.492C113.744 120.073 104.731 123.722 93.7424 125.439C91.3388 125.783 88.5917 126.04 85.5013 126.212C82.4109 126.384 80.0073 126.47 78.2904 126.47H35.0246V189.318H0ZM35.0246 93.7576H76.7452C78.5479 93.7576 80.5223 93.6717 82.6684 93.5C84.8146 93.3283 86.789 92.9848 88.5917 92.4697C93.3132 91.1818 96.9616 89.0353 99.5369 86.0303C102.112 82.9394 103.872 79.548 104.816 75.8561C105.847 72.0783 106.362 68.5151 106.362 65.1667C106.362 61.8182 105.847 58.298 104.816 54.6061C103.872 50.8283 102.112 47.4369 99.5369 44.4318C96.9616 41.3409 93.3132 39.1515 88.5917 37.8636C86.789 37.3485 84.8146 37.005 82.6684 36.8333C80.5223 36.6616 78.5479 36.5757 76.7452 36.5757H35.0246V93.7576Z" fill="#2E63CD"/>
<path d="M223.185 193.182C208.935 193.182 196.359 190.134 185.457 184.038C174.64 177.856 166.142 169.399 159.961 158.667C153.866 147.848 150.818 135.485 150.818 121.576C150.818 106.379 153.823 93.1566 159.832 81.9091C165.841 70.6616 174.125 61.947 184.684 55.7651C195.243 49.4975 207.39 46.3636 221.125 46.3636C235.719 46.3636 248.123 49.798 258.339 56.6667C268.554 63.5353 276.109 73.1944 281.002 85.6439C285.895 98.0934 287.612 112.732 286.153 129.561H251.514V116.682C251.514 102.515 249.239 92.3409 244.69 86.1591C240.226 79.8914 232.886 76.7576 222.67 76.7576C210.738 76.7576 201.939 80.4066 196.273 87.7045C190.693 94.9167 187.903 105.606 187.903 119.773C187.903 132.737 190.693 142.783 196.273 149.909C201.939 156.949 210.223 160.47 221.125 160.47C227.993 160.47 233.873 158.967 238.766 155.962C243.659 152.957 247.394 148.621 249.969 142.955L284.994 153C279.757 165.707 271.473 175.581 260.142 182.621C248.896 189.662 236.577 193.182 223.185 193.182ZM177.087 129.561V103.545H269.284V129.561H177.087Z" fill="#2E63CD"/>
<path d="M308.789 189.318V50.2273H339.693V84.2273L336.346 79.8485C338.148 75.0404 340.552 70.6616 343.556 66.7121C346.561 62.7626 350.252 59.5 354.63 56.9242C357.978 54.8636 361.627 53.2752 365.576 52.1591C369.525 50.9571 373.602 50.2273 377.809 49.9697C382.015 49.6263 386.221 49.7121 390.428 50.2273V82.9394C386.565 81.7374 382.058 81.351 376.907 81.7803C371.842 82.1237 367.25 83.2828 363.129 85.2576C359.009 87.1465 355.532 89.6793 352.699 92.8561C349.866 95.947 347.72 99.6389 346.261 103.932C344.801 108.139 344.072 112.904 344.072 118.227V189.318H308.789Z" fill="#2E63CD"/>
<path d="M420.072 189.318V50.7424C420.072 47.2222 420.158 43.2298 420.33 38.7651C420.502 34.3005 421.188 29.7929 422.39 25.2424C423.678 20.6919 425.996 16.5707 429.344 12.8788C433.636 8.07069 438.271 4.80807 443.25 3.0909C448.315 1.28787 453.208 0.343425 457.93 0.257572C462.651 0.0858575 466.686 0 470.034 0H487.289V28.3333H471.322C465.828 28.3333 461.75 29.75 459.089 32.5833C456.428 35.3308 455.097 38.6364 455.097 42.5V189.318H420.072ZM398.182 77.2727V50.2273H487.289V77.2727H398.182Z" fill="#2E63CD"/>
<path d="M560.998 193.182C546.748 193.182 534.171 190.134 523.269 184.038C512.453 177.856 503.954 169.399 497.773 158.667C491.678 147.848 488.631 135.485 488.631 121.576C488.631 106.379 491.635 93.1566 497.644 81.9091C503.653 70.6616 511.938 61.947 522.496 55.7651C533.055 49.4975 545.202 46.3636 558.937 46.3636C573.531 46.3636 585.936 49.798 596.151 56.6667C606.367 63.5353 613.921 73.1944 618.814 85.6439C623.707 98.0934 625.424 112.732 623.965 129.561H589.326V116.682C589.326 102.515 587.052 92.3409 582.502 86.1591C578.038 79.8914 570.698 76.7576 560.483 76.7576C548.55 76.7576 539.751 80.4066 534.085 87.7045C528.506 94.9167 525.716 105.606 525.716 119.773C525.716 132.737 528.506 142.783 534.085 149.909C539.751 156.949 548.035 160.47 558.937 160.47C565.805 160.47 571.685 158.967 576.579 155.962C581.472 152.957 585.206 148.621 587.781 142.955L622.806 153C617.569 165.707 609.285 175.581 597.954 182.621C586.708 189.662 574.39 193.182 560.998 193.182ZM514.899 129.561V103.545H607.096V129.561H514.899Z" fill="#2E63CD"/>
<path d="M707.895 193.182C693.473 193.182 681.111 189.962 670.81 183.523C660.509 177.083 652.611 168.326 647.117 157.25C641.623 146.174 638.876 133.682 638.876 119.773C638.876 105.692 641.709 93.1136 647.374 82.0379C653.126 70.9621 661.195 62.2475 671.582 55.8939C681.97 49.5404 694.246 46.3636 708.41 46.3636C724.806 46.3636 738.541 50.5278 749.615 58.8561C760.775 67.0985 767.9 78.3889 770.991 92.7273L735.966 102C733.906 94.7879 730.3 89.1641 725.15 85.1288C720.085 81.0934 714.333 79.0757 707.895 79.0757C700.512 79.0757 694.46 80.8788 689.739 84.4848C685.017 88.005 681.54 92.8561 679.309 99.0379C677.077 105.134 675.961 112.045 675.961 119.773C675.961 131.879 678.622 141.71 683.944 149.265C689.352 156.735 697.336 160.47 707.895 160.47C715.792 160.47 721.802 158.667 725.922 155.061C730.043 151.455 733.133 146.303 735.193 139.606L770.991 147.076C767.042 161.843 759.573 173.22 748.585 181.205C737.597 189.189 724.034 193.182 707.895 193.182Z" fill="#2E63CD"/>
<path d="M873.749 189.318C864.134 191.121 854.691 191.894 845.42 191.636C836.235 191.465 827.994 189.876 820.697 186.871C813.486 183.78 807.992 178.843 804.215 172.061C800.781 165.707 798.978 159.268 798.806 152.742C798.635 146.131 798.549 138.662 798.549 130.333V11.5909H833.573V128.273C833.573 133.682 833.616 138.576 833.702 142.955C833.874 147.247 834.775 150.682 836.406 153.258C839.497 158.152 844.433 160.813 851.215 161.242C857.996 161.672 865.508 161.328 873.749 160.212V189.318ZM774.856 77.2727V50.2273H873.749V77.2727H774.856Z" fill="#2E63CD"/>
<path d="M900.876 30.9091V0H935.901V30.9091H900.876ZM900.876 189.318V50.2273H935.901V189.318H900.876Z" fill="#2E63CD"/>
<path d="M1062.84 189.318V123.636C1062.84 120.46 1062.67 116.424 1062.32 111.53C1061.98 106.55 1060.91 101.571 1059.1 96.5909C1057.3 91.6111 1054.34 87.447 1050.22 84.0985C1046.19 80.75 1040.43 79.0757 1032.97 79.0757C1029.96 79.0757 1026.74 79.548 1023.31 80.4924C1019.87 81.4369 1016.65 83.2828 1013.65 86.0303C1010.65 88.6919 1008.16 92.6414 1006.18 97.8788C1004.29 103.116 1003.35 110.071 1003.35 118.742L983.261 109.212C983.261 98.2222 985.493 87.9192 989.957 78.303C994.421 68.6869 1001.12 60.9167 1010.04 54.9924C1019.06 49.0682 1030.39 46.106 1044.04 46.106C1054.94 46.106 1063.83 47.952 1070.69 51.6439C1077.56 55.3359 1082.88 60.0151 1086.66 65.6818C1090.52 71.3485 1093.27 77.2727 1094.9 83.4545C1096.53 89.5505 1097.52 95.1313 1097.86 100.197C1098.21 105.263 1098.38 108.955 1098.38 111.273V189.318H1062.84ZM967.809 189.318V50.2273H998.971V96.3333H1003.35V189.318H967.809Z" fill="#2E63CD"/>
<path d="M1184.84 255C1176.95 255 1169.43 253.712 1162.31 251.136C1155.18 248.646 1148.79 245.126 1143.12 240.576C1137.54 236.111 1132.99 230.874 1129.47 224.864L1161.92 209.152C1164.16 213.273 1167.33 216.407 1171.45 218.553C1175.66 220.699 1180.21 221.773 1185.1 221.773C1190.34 221.773 1195.27 220.871 1199.91 219.068C1204.55 217.351 1208.24 214.732 1210.98 211.212C1213.82 207.778 1215.15 203.485 1214.98 198.333V157.894H1219.35V50.2273H1250V198.848C1250 202.283 1249.83 205.503 1249.48 208.508C1249.23 211.598 1248.71 214.646 1247.94 217.652C1245.71 226.152 1241.54 233.149 1235.45 238.644C1229.44 244.139 1222.06 248.217 1213.3 250.879C1204.55 253.626 1195.06 255 1184.84 255ZM1181.75 193.182C1168.96 193.182 1157.76 189.962 1148.15 183.523C1138.53 177.083 1131.02 168.326 1125.61 157.25C1120.29 146.174 1117.63 133.682 1117.63 119.773C1117.63 105.606 1120.33 93.0278 1125.74 82.0379C1131.23 70.9621 1138.92 62.2475 1148.79 55.8939C1158.66 49.5404 1170.25 46.3636 1183.56 46.3636C1196.78 46.3636 1207.89 49.5833 1216.91 56.0227C1225.92 62.4621 1232.75 71.2197 1237.38 82.2954C1242.02 93.3712 1244.33 105.864 1244.33 119.773C1244.33 133.682 1241.97 146.174 1237.25 157.25C1232.62 168.326 1225.66 177.083 1216.39 183.523C1207.12 189.962 1195.57 193.182 1181.75 193.182ZM1187.42 162.015C1195.23 162.015 1201.45 160.255 1206.09 156.735C1210.81 153.215 1214.2 148.278 1216.26 141.924C1218.32 135.571 1219.35 128.187 1219.35 119.773C1219.35 111.359 1218.32 103.975 1216.26 97.6212C1214.2 91.2677 1210.9 86.3308 1206.35 82.8106C1201.88 79.2904 1196 77.5303 1188.71 77.5303C1180.9 77.5303 1174.46 79.4621 1169.39 83.3258C1164.41 87.1035 1160.72 92.2121 1158.32 98.6515C1155.91 105.005 1154.71 112.045 1154.71 119.773C1154.71 127.586 1155.87 134.712 1158.19 141.151C1160.51 147.505 1164.07 152.571 1168.88 156.348C1173.68 160.126 1179.86 162.015 1187.42 162.015Z" fill="#2E63CD"/>
</svg>
